#!OML:ASF E:\Steps\Project 1\Capture day 1\Session 2\Subject.ASF
:FULLY-SPECIFIED
:DEGREES
145
root -1.44038 17.9556 20.6242 -154.46 1.2323 178.301
lowerback -27.985 -3.20602 -7.62097
upperback -0.867574 -1.16435 -0.0265342
thorax 14.0644 -0.767494 3.74423
lowerneck -2.5192 -3.37754 -0.243218
upperneck 7.75337 -4.64237 4.36446
head 3.04522 -2.07549 1.30042
rclavicle 1.33186e-014 -1.74931e-014
rhumerus -39.218 -18.0394 -77.5224
rradius 32.7443
rwrist -2.91536
rhand -7.41952 -56.3195
rfingers 7.12502
rthumb 18.4673 -85.4629
lclavicle 1.33186e-014 -1.74931e-014
lhumerus -29.7799 4.80564 80.092
lradius 23.0383
lwrist -5.32358
lhand -21.5403 -13.4678
lfingers 7.12502
lthumb 4.85268 16.4566
rfemur -24.5555 6.19163 19.3449
rtibia 11.0086
rfoot -19.9997 -2.90783
rtoes -23.6024
lfemur -22.6312 -3.00696 -24.8089
ltibia 7.17138
lfoot -6.21353 -6.9338
ltoes -21.409
146
root -1.4416 17.9523 20.6143 -154.489 1.33612 178.29
lowerback -28.0716 -3.17505 -7.61142
upperback -0.867665 -1.11069 -0.0552686
thorax 14.0975 -0.741318 3.72712
lowerneck -2.35231 -3.3826 -0.316801
upperneck 7.65475 -4.64556 4.47658
head 2.98654 -2.07843 1.35219
rclavicle -4.96962e-016 1.63003e-014
rhumerus -39.3233 -18.1183 -77.4184
rradius 32.6081
rwrist -2.77266
rhand -8.49408 -53.2739
rfingers 7.12502
rthumb 17.4334 -82.5121
lclavicle -4.96962e-016 1.63003e-014
lhumerus -29.8955 4.92994 79.9507
lradius 22.8314
lwrist -5.57481
lhand -21.5436 -13.1568
lfingers 7.12502
lthumb 4.84945 16.7677
rfemur -24.4149 6.17118 19.3584
rtibia 10.8779
rfoot -19.9941 -2.86227
rtoes -24.2011
lfemur -22.4813 -2.87883 -24.8993
ltibia 7.04437
lfoot -6.10198 -7.04572
ltoes -19.8624
147
root -1.44274 17.9486 20.6059 -154.505 1.25962 178.237
lowerback -28.2212 -3.21735 -7.62035
upperback -0.786996 -1.14671 -0.0791122
thorax 14.2642 -0.76647 3.68892
lowerneck -2.63598 -3.39599 -0.282068
upperneck 7.99084 -4.67278 4.4376
head 3.15313 -2.07944 1.32876
rclavicle 2.18663e-015 -1.15295e-014
rhumerus -39.2372 -18.1437 -77.4694
rradius 32.4191
rwrist -2.91988
rhand -7.38889 -56.0835
rfingers 7.12502
rthumb 18.4968 -85.2241
lclavicle 2.18663e-015 -1.15295e-014
lhumerus -29.8292 5.18538 79.7762
lradius 22.5848
lwrist -5.81041
lhand -21.3726 -12.7136
lfingers 7.12502
lthumb 5.01463 17.2071
rfemur -24.2276 6.13458 19.3175
rtibia 10.6454
rfoot -19.9729 -2.89319
rtoes -24.228
lfemur -22.3821 -2.91237 -24.9878
ltibia 6.95903
lfoot -5.98292 -7.21236
ltoes -19.0665
148
root -1.44199 17.9527 20.611 -154.571 1.26721 178.265
lowerback -28.0165 -3.2069 -7.63465
upperback -0.814088 -1.15757 -0.0542813
thorax 14.1393 -0.770745 3.72292
lowerneck -2.81683 -3.3987 -0.308305
upperneck 8.19833 -4.68112 4.42857
head 3.2595 -2.0769 1.32781
rclavicle 9.93923e-017 1.23246e-014
rhumerus -39.3088 -18.1078 -77.4385
rradius 32.3726
rwrist -2.94663
rhand -6.85814 -57.4519
rfingers 7.12502
rthumb 19.0073 -86.5432
lclavicle 9.93923e-017 1.23246e-014
lhumerus -29.8477 5.43083 79.6563
lradius 22.3516
lwrist -5.95066
lhand -21.3007 -12.6607
lfingers 7.12502
lthumb 5.08397 17.2583
rfemur -24.209 6.29545 19.2988
rtibia 10.6719
rfoot -19.9594 -3.00956
rtoes -24.0421
lfemur -22.3536 -3.04094 -24.8733
ltibia 6.98489
lfoot -6.02569 -7.08258
ltoes -18.6123
149
root -1.43954 17.9583 20.6213 -154.603 1.28443 178.319
lowerback -27.8576 -3.18252 -7.63793
upperback -0.810386 -1.15262 -0.0224536
thorax 14.0694 -0.77153 3.76358
lowerneck -2.80765 -3.40949 -0.349204
upperneck 8.05598 -4.69645 4.46179
head 3.21164 -2.08999 1.34524
rclavicle -8.64713e-015 -9.14409e-015
rhumerus -39.3704 -18.1422 -77.3759
rradius 32.4551
rwrist -2.63685
rhand -7.07143 -57.3263
rfingers 7.12502
rthumb 18.8021 -86.4376
lclavicle -8.64713e-015 -9.14409e-015
lhumerus -29.8066 5.54696 79.5894
lradius 22.1993
lwrist -5.91761
lhand -21.3129 -12.788
lfingers 7.12502
lthumb 5.07223 17.1313
rfemur -24.2741 6.44732 19.3306
rtibia 10.7557
rfoot -19.917 -3.17435
rtoes -24.1497
lfemur -22.4265 -3.05572 -24.7393
ltibia 7.11547
lfoot -6.12622 -6.97078
ltoes -18.2104
150
root -1.43988 17.9536 20.6123 -154.578 1.26764 178.366
lowerback -28.0393 -3.17894 -7.58057
upperback -0.754959 -1.1526 -0.00465043
thorax 14.2186 -0.775734 3.74853
lowerneck -2.77975 -3.42377 -0.287866
upperneck 7.91299 -4.71366 4.37768
head 3.1528 -2.10579 1.30632
rclavicle 7.65321e-015 3.26007e-014
rhumerus -39.3979 -18.1897 -77.3331
rradius 32.4509
rwrist -2.42048
rhand -9.21209 -54.1696
rfingers 7.12502
rthumb 16.7423 -83.4677
lclavicle 7.65321e-015 3.26007e-014
lhumerus -29.7978 5.73887 79.4811
lradius 22.0073
lwrist -6.17134
lhand -21.4916 -12.6656
lfingers 7.12502
lthumb 4.89965 17.2578
rfemur -24.202 6.34829 19.4238
rtibia 10.6195
rfoot -19.8189 -3.03835
rtoes -23.8455
lfemur -22.3764 -2.98866 -24.7293
ltibia 7.06562
lfoot -6.07776 -7.00767
ltoes -17.4981
151
root -1.45143 17.9213 20.5688 -154.555 1.36844 178.047
lowerback -28.7335 -3.23911 -7.68533
upperback -0.59359 -1.09214 -0.149599
thorax 14.7199 -0.765938 3.6584
lowerneck -2.81025 -3.41238 -0.208755
upperneck 7.9089 -4.69983 4.32096
head 3.1523 -2.09875 1.27394
rclavicle 1.47101e-014 2.70347e-014
rhumerus -39.4037 -18.1609 -77.3873
rradius 32.3442
rwrist -2.70408
rhand -8.25939 -56.3037
rfingers 7.12502
rthumb 17.6592 -85.5217
lclavicle 1.47101e-014 2.70347e-014
lhumerus -29.8265 6.11966 79.2548
lradius 21.7285
lwrist -6.7501
lhand -21.6202 -12.5437
lfingers 7.12502
lthumb 4.77555 17.3825
rfemur -23.7608 5.52777 19.2188
rtibia 10.1784
rfoot -19.7591 -2.18406
rtoes -23.5268
lfemur -21.8657 -2.88849 -25.4141
ltibia 6.57051
lfoot -5.95142 -7.31403
ltoes -17.1581
152
root -1.43828 17.9525 20.6133 -154.564 1.3067 178.334
lowerback -28.0223 -3.19733 -7.64329
upperback -0.750334 -1.1542 -0.0266509
thorax 14.2162 -0.779704 3.75807
lowerneck -2.80722 -3.39807 -0.170825
upperneck 7.82495 -4.68244 4.32161
head 3.12132 -2.09179 1.26818
rclavicle 1.51076e-014 -1.31198e-014
rhumerus -39.4382 -18.4642 -77.2043
rradius 32.264
rwrist -1.93095
rhand -8.48373 -54.2079
rfingers 7.12502
rthumb 17.4433 -83.4452
lclavicle 1.51076e-014 -1.31198e-014
lhumerus -29.8373 6.4388 79.055
lradius 21.5082
lwrist -7.13308
lhand -21.8387 -12.6335
lfingers 7.12502
lthumb 4.56456 17.2973
rfemur -24.2312 6.38861 19.3867
rtibia 10.6451
rfoot -19.7737 -3.02695
rtoes -24.0205
lfemur -22.4066 -2.86365 -24.7878
ltibia 7.08188
lfoot -5.90461 -7.19216
ltoes -17.6656
153
root -1.43871 17.9438 20.6085 -154.699 1.39152 177.899
lowerback -27.9565 -3.29173 -8.05436
upperback -0.67747 -1.12804 -0.169088
thorax 14.2663 -0.794249 3.83534
lowerneck -2.84496 -3.39997 -0.123739
upperneck 7.77702 -4.68855 4.31871
head 3.11063 -2.09494 1.25821
rclavicle -1.43125e-014 3.53837e-014
rhumerus -39.4191 -18.6486 -77.1547
rradius 32.1966
rwrist -1.59606
rhand -8.11592 -54.4823
rfingers 7.12502
rthumb 17.7973 -83.6879
lclavicle -1.43125e-014 3.53837e-014
lhumerus -29.8324 6.56957 78.9082
lradius 21.3501
lwrist -7.33506
lhand -22.2519 -12.6543
lfingers 7.12502
lthumb 4.16549 17.2847
rfemur -24.0265 6.15681 18.9216
rtibia 10.5889
rfoot -19.8634 -2.9691
rtoes -24.2167
lfemur -22.156 -2.92984 -25.3677
ltibia 6.95767
lfoot -5.87072 -7.32379
ltoes -16.8008
154
root -1.43839 17.9519 20.6123 -154.58 1.3238 178.294
lowerback -27.938 -3.19889 -7.65644
upperback -0.775898 -1.15274 -0.0653203
thorax 14.1458 -0.774643 3.72528
lowerneck -2.90425 -3.40399 -0.144944
upperneck 7.93563 -4.69511 4.32536
head 3.17731 -2.0926 1.26311
rclavicle 1.98785e-016 1.70955e-014
rhumerus -39.5 -18.6301 -77.1115
rradius 32.1148
rwrist -1.65272
rhand -7.92799 -55.028
rfingers 7.12502
rthumb 17.9781 -84.217
lclavicle 1.98785e-016 1.70955e-014
lhumerus -29.9749 6.73028 78.7594
lradius 21.2297
lwrist -7.51524
lhand -21.9511 -12.5197
lfingers 7.12502
lthumb 4.456 17.4135
rfemur -24.261 6.36843 19.3383
rtibia 10.7496
rfoot -19.9462 -3.02746
rtoes -23.9127
lfemur -22.377 -2.78345 -24.8929
ltibia 7.00277
lfoot -6.12248 -7.10231
ltoes -20.6655
